<mxfile host="Electron" agent="Mozilla/5.0 (Windows NT 10.0; Win64; x64) AppleWebKit/537.36 (KHTML, like Gecko) draw.io/26.0.4 Chrome/128.0.6613.186 Electron/32.2.5 Safari/537.36" version="26.0.4">
  <diagram name="PÃ¡gina-1" id="ni77-HxVyjkr2rU-ajkG">
    <mxGraphModel dx="864" dy="508" grid="1" gridSize="10" guides="1" tooltips="1" connect="1" arrows="1" fold="1" page="1" pageScale="1" pageWidth="827" pageHeight="1169" math="0" shadow="0">
      <root>
        <mxCell id="0" />
        <mxCell id="1" parent="0" />
        <mxCell id="2_yVWRX5qD7WExRqx4pT-3" style="edgeStyle=orthogonalEdgeStyle;rounded=0;orthogonalLoop=1;jettySize=auto;html=1;exitX=0.5;exitY=0;exitDx=0;exitDy=0;entryX=0.5;entryY=1;entryDx=0;entryDy=0;endArrow=none;endFill=0;" edge="1" parent="1" source="2_yVWRX5qD7WExRqx4pT-1" target="2_yVWRX5qD7WExRqx4pT-2">
          <mxGeometry relative="1" as="geometry" />
        </mxCell>
        <mxCell id="2_yVWRX5qD7WExRqx4pT-9" style="edgeStyle=orthogonalEdgeStyle;shape=connector;rounded=0;orthogonalLoop=1;jettySize=auto;html=1;exitX=0;exitY=0;exitDx=0;exitDy=0;entryX=0.5;entryY=1;entryDx=0;entryDy=0;strokeColor=default;align=center;verticalAlign=middle;fontFamily=Helvetica;fontSize=11;fontColor=default;labelBackgroundColor=default;endArrow=none;endFill=0;" edge="1" parent="1" source="2_yVWRX5qD7WExRqx4pT-1" target="2_yVWRX5qD7WExRqx4pT-6">
          <mxGeometry relative="1" as="geometry" />
        </mxCell>
        <mxCell id="2_yVWRX5qD7WExRqx4pT-10" style="edgeStyle=orthogonalEdgeStyle;shape=connector;rounded=0;orthogonalLoop=1;jettySize=auto;html=1;exitX=1;exitY=0;exitDx=0;exitDy=0;entryX=0.5;entryY=1;entryDx=0;entryDy=0;strokeColor=default;align=center;verticalAlign=middle;fontFamily=Helvetica;fontSize=11;fontColor=default;labelBackgroundColor=default;endArrow=none;endFill=0;" edge="1" parent="1" source="2_yVWRX5qD7WExRqx4pT-1" target="2_yVWRX5qD7WExRqx4pT-4">
          <mxGeometry relative="1" as="geometry" />
        </mxCell>
        <mxCell id="2_yVWRX5qD7WExRqx4pT-14" style="edgeStyle=orthogonalEdgeStyle;shape=connector;rounded=0;orthogonalLoop=1;jettySize=auto;html=1;exitX=1;exitY=0.25;exitDx=0;exitDy=0;entryX=0;entryY=0.5;entryDx=0;entryDy=0;strokeColor=default;align=center;verticalAlign=middle;fontFamily=Helvetica;fontSize=11;fontColor=default;labelBackgroundColor=default;endArrow=none;endFill=0;" edge="1" parent="1" source="2_yVWRX5qD7WExRqx4pT-1" target="2_yVWRX5qD7WExRqx4pT-13">
          <mxGeometry relative="1" as="geometry" />
        </mxCell>
        <mxCell id="2_yVWRX5qD7WExRqx4pT-1" value="Usuarios" style="rounded=1;arcSize=10;whiteSpace=wrap;html=1;align=center;" vertex="1" parent="1">
          <mxGeometry x="140" y="140" width="100" height="40" as="geometry" />
        </mxCell>
        <mxCell id="2_yVWRX5qD7WExRqx4pT-2" value="ID" style="ellipse;whiteSpace=wrap;html=1;align=center;fontStyle=4;" vertex="1" parent="1">
          <mxGeometry x="155" y="80" width="70" height="30" as="geometry" />
        </mxCell>
        <mxCell id="2_yVWRX5qD7WExRqx4pT-4" value="email" style="ellipse;whiteSpace=wrap;html=1;align=center;fontFamily=Helvetica;fontSize=11;fontColor=default;labelBackgroundColor=default;" vertex="1" parent="1">
          <mxGeometry x="250" y="40" width="70" height="30" as="geometry" />
        </mxCell>
        <mxCell id="2_yVWRX5qD7WExRqx4pT-6" value="senha" style="ellipse;whiteSpace=wrap;html=1;align=center;fontFamily=Helvetica;fontSize=11;fontColor=default;labelBackgroundColor=default;" vertex="1" parent="1">
          <mxGeometry x="70" y="40" width="70" height="30" as="geometry" />
        </mxCell>
        <mxCell id="2_yVWRX5qD7WExRqx4pT-11" value="data_cadastro" style="ellipse;whiteSpace=wrap;html=1;align=center;fontFamily=Helvetica;fontSize=11;fontColor=default;labelBackgroundColor=default;" vertex="1" parent="1">
          <mxGeometry x="30" y="120" width="80" height="30" as="geometry" />
        </mxCell>
        <mxCell id="2_yVWRX5qD7WExRqx4pT-12" style="edgeStyle=orthogonalEdgeStyle;shape=connector;rounded=0;orthogonalLoop=1;jettySize=auto;html=1;exitX=0;exitY=0.25;exitDx=0;exitDy=0;entryX=0.975;entryY=0.733;entryDx=0;entryDy=0;entryPerimeter=0;strokeColor=default;align=center;verticalAlign=middle;fontFamily=Helvetica;fontSize=11;fontColor=default;labelBackgroundColor=default;endArrow=none;endFill=0;" edge="1" parent="1" source="2_yVWRX5qD7WExRqx4pT-1" target="2_yVWRX5qD7WExRqx4pT-11">
          <mxGeometry relative="1" as="geometry" />
        </mxCell>
        <mxCell id="2_yVWRX5qD7WExRqx4pT-13" value="nome" style="ellipse;whiteSpace=wrap;html=1;align=center;fontFamily=Helvetica;fontSize=11;fontColor=default;labelBackgroundColor=default;" vertex="1" parent="1">
          <mxGeometry x="270" y="120" width="80" height="30" as="geometry" />
        </mxCell>
        <mxCell id="2_yVWRX5qD7WExRqx4pT-16" value="" style="edgeStyle=orthogonalEdgeStyle;shape=connector;rounded=0;orthogonalLoop=1;jettySize=auto;html=1;strokeColor=default;align=center;verticalAlign=middle;fontFamily=Helvetica;fontSize=11;fontColor=default;labelBackgroundColor=default;endArrow=none;endFill=0;" edge="1" parent="1" source="2_yVWRX5qD7WExRqx4pT-15" target="2_yVWRX5qD7WExRqx4pT-1">
          <mxGeometry relative="1" as="geometry" />
        </mxCell>
        <mxCell id="2_yVWRX5qD7WExRqx4pT-18" style="edgeStyle=orthogonalEdgeStyle;shape=connector;rounded=0;orthogonalLoop=1;jettySize=auto;html=1;exitX=0.5;exitY=1;exitDx=0;exitDy=0;entryX=0.5;entryY=0;entryDx=0;entryDy=0;strokeColor=default;align=center;verticalAlign=middle;fontFamily=Helvetica;fontSize=11;fontColor=default;labelBackgroundColor=default;endArrow=none;endFill=0;" edge="1" parent="1" source="2_yVWRX5qD7WExRqx4pT-15" target="2_yVWRX5qD7WExRqx4pT-17">
          <mxGeometry relative="1" as="geometry" />
        </mxCell>
        <mxCell id="2_yVWRX5qD7WExRqx4pT-15" value="Possui" style="shape=rhombus;perimeter=rhombusPerimeter;whiteSpace=wrap;html=1;align=center;fontFamily=Helvetica;fontSize=11;fontColor=default;labelBackgroundColor=default;" vertex="1" parent="1">
          <mxGeometry x="130" y="270" width="120" height="60" as="geometry" />
        </mxCell>
        <mxCell id="2_yVWRX5qD7WExRqx4pT-27" style="edgeStyle=orthogonalEdgeStyle;shape=connector;rounded=0;orthogonalLoop=1;jettySize=auto;html=1;exitX=1;exitY=0.5;exitDx=0;exitDy=0;entryX=0;entryY=0.5;entryDx=0;entryDy=0;strokeColor=default;align=center;verticalAlign=middle;fontFamily=Helvetica;fontSize=11;fontColor=default;labelBackgroundColor=default;endArrow=none;endFill=0;" edge="1" parent="1" source="2_yVWRX5qD7WExRqx4pT-17" target="2_yVWRX5qD7WExRqx4pT-26">
          <mxGeometry relative="1" as="geometry" />
        </mxCell>
        <mxCell id="2_yVWRX5qD7WExRqx4pT-17" value="Grupos" style="rounded=1;arcSize=10;whiteSpace=wrap;html=1;align=center;" vertex="1" parent="1">
          <mxGeometry x="140" y="430" width="100" height="40" as="geometry" />
        </mxCell>
        <mxCell id="2_yVWRX5qD7WExRqx4pT-20" style="edgeStyle=orthogonalEdgeStyle;shape=connector;rounded=0;orthogonalLoop=1;jettySize=auto;html=1;exitX=0.5;exitY=0;exitDx=0;exitDy=0;entryX=0.5;entryY=1;entryDx=0;entryDy=0;strokeColor=default;align=center;verticalAlign=middle;fontFamily=Helvetica;fontSize=11;fontColor=default;labelBackgroundColor=default;endArrow=none;endFill=0;" edge="1" parent="1" source="2_yVWRX5qD7WExRqx4pT-19" target="2_yVWRX5qD7WExRqx4pT-17">
          <mxGeometry relative="1" as="geometry" />
        </mxCell>
        <mxCell id="2_yVWRX5qD7WExRqx4pT-19" value="ID" style="ellipse;whiteSpace=wrap;html=1;align=center;fontStyle=4;" vertex="1" parent="1">
          <mxGeometry x="155" y="510" width="70" height="30" as="geometry" />
        </mxCell>
        <mxCell id="2_yVWRX5qD7WExRqx4pT-21" value="tipo_usuario" style="ellipse;whiteSpace=wrap;html=1;align=center;fontFamily=Helvetica;fontSize=11;fontColor=default;labelBackgroundColor=default;" vertex="1" parent="1">
          <mxGeometry x="320" y="80" width="80" height="30" as="geometry" />
        </mxCell>
        <mxCell id="2_yVWRX5qD7WExRqx4pT-22" style="edgeStyle=orthogonalEdgeStyle;shape=connector;rounded=0;orthogonalLoop=1;jettySize=auto;html=1;exitX=0;exitY=0.5;exitDx=0;exitDy=0;strokeColor=default;align=center;verticalAlign=middle;fontFamily=Helvetica;fontSize=11;fontColor=default;labelBackgroundColor=default;endArrow=none;endFill=0;entryX=0.9;entryY=0;entryDx=0;entryDy=0;entryPerimeter=0;" edge="1" parent="1" source="2_yVWRX5qD7WExRqx4pT-21" target="2_yVWRX5qD7WExRqx4pT-1">
          <mxGeometry relative="1" as="geometry">
            <mxPoint x="230" y="130" as="targetPoint" />
          </mxGeometry>
        </mxCell>
        <mxCell id="2_yVWRX5qD7WExRqx4pT-25" style="edgeStyle=orthogonalEdgeStyle;shape=connector;rounded=0;orthogonalLoop=1;jettySize=auto;html=1;exitX=1;exitY=0;exitDx=0;exitDy=0;entryX=0;entryY=1;entryDx=0;entryDy=0;strokeColor=default;align=center;verticalAlign=middle;fontFamily=Helvetica;fontSize=11;fontColor=default;labelBackgroundColor=default;endArrow=none;endFill=0;" edge="1" parent="1" source="2_yVWRX5qD7WExRqx4pT-23" target="2_yVWRX5qD7WExRqx4pT-17">
          <mxGeometry relative="1" as="geometry" />
        </mxCell>
        <mxCell id="2_yVWRX5qD7WExRqx4pT-23" value="nome" style="ellipse;whiteSpace=wrap;html=1;align=center;fontFamily=Helvetica;fontSize=11;fontColor=default;labelBackgroundColor=default;" vertex="1" parent="1">
          <mxGeometry x="40" y="490" width="80" height="30" as="geometry" />
        </mxCell>
        <mxCell id="2_yVWRX5qD7WExRqx4pT-29" style="edgeStyle=orthogonalEdgeStyle;shape=connector;rounded=0;orthogonalLoop=1;jettySize=auto;html=1;exitX=1;exitY=0.5;exitDx=0;exitDy=0;entryX=0;entryY=0.5;entryDx=0;entryDy=0;strokeColor=default;align=center;verticalAlign=middle;fontFamily=Helvetica;fontSize=11;fontColor=default;labelBackgroundColor=default;endArrow=none;endFill=0;" edge="1" parent="1" source="2_yVWRX5qD7WExRqx4pT-26" target="2_yVWRX5qD7WExRqx4pT-28">
          <mxGeometry relative="1" as="geometry" />
        </mxCell>
        <mxCell id="2_yVWRX5qD7WExRqx4pT-26" value="possui" style="shape=rhombus;perimeter=rhombusPerimeter;whiteSpace=wrap;html=1;align=center;fontFamily=Helvetica;fontSize=11;fontColor=default;labelBackgroundColor=default;" vertex="1" parent="1">
          <mxGeometry x="350" y="420" width="120" height="60" as="geometry" />
        </mxCell>
        <mxCell id="2_yVWRX5qD7WExRqx4pT-28" value="Atividades" style="rounded=1;arcSize=10;whiteSpace=wrap;html=1;align=center;" vertex="1" parent="1">
          <mxGeometry x="570" y="430" width="100" height="40" as="geometry" />
        </mxCell>
        <mxCell id="2_yVWRX5qD7WExRqx4pT-31" style="edgeStyle=orthogonalEdgeStyle;shape=connector;rounded=0;orthogonalLoop=1;jettySize=auto;html=1;exitX=0.5;exitY=0;exitDx=0;exitDy=0;strokeColor=default;align=center;verticalAlign=middle;fontFamily=Helvetica;fontSize=11;fontColor=default;labelBackgroundColor=default;endArrow=none;endFill=0;" edge="1" parent="1" source="2_yVWRX5qD7WExRqx4pT-30" target="2_yVWRX5qD7WExRqx4pT-28">
          <mxGeometry relative="1" as="geometry" />
        </mxCell>
        <mxCell id="2_yVWRX5qD7WExRqx4pT-30" value="ID" style="ellipse;whiteSpace=wrap;html=1;align=center;fontStyle=4;" vertex="1" parent="1">
          <mxGeometry x="585" y="530" width="70" height="30" as="geometry" />
        </mxCell>
        <mxCell id="2_yVWRX5qD7WExRqx4pT-32" value="data_cadastro" style="ellipse;whiteSpace=wrap;html=1;align=center;fontFamily=Helvetica;fontSize=11;fontColor=default;labelBackgroundColor=default;" vertex="1" parent="1">
          <mxGeometry x="250" y="510" width="80" height="30" as="geometry" />
        </mxCell>
        <mxCell id="2_yVWRX5qD7WExRqx4pT-33" style="edgeStyle=orthogonalEdgeStyle;shape=connector;rounded=0;orthogonalLoop=1;jettySize=auto;html=1;exitX=0;exitY=0;exitDx=0;exitDy=0;entryX=0.9;entryY=1;entryDx=0;entryDy=0;entryPerimeter=0;strokeColor=default;align=center;verticalAlign=middle;fontFamily=Helvetica;fontSize=11;fontColor=default;labelBackgroundColor=default;endArrow=none;endFill=0;" edge="1" parent="1" source="2_yVWRX5qD7WExRqx4pT-32" target="2_yVWRX5qD7WExRqx4pT-17">
          <mxGeometry relative="1" as="geometry" />
        </mxCell>
        <mxCell id="2_yVWRX5qD7WExRqx4pT-35" style="edgeStyle=orthogonalEdgeStyle;shape=connector;rounded=0;orthogonalLoop=1;jettySize=auto;html=1;exitX=1;exitY=0;exitDx=0;exitDy=0;entryX=0.25;entryY=1;entryDx=0;entryDy=0;strokeColor=default;align=center;verticalAlign=middle;fontFamily=Helvetica;fontSize=11;fontColor=default;labelBackgroundColor=default;endArrow=none;endFill=0;" edge="1" parent="1" source="2_yVWRX5qD7WExRqx4pT-34" target="2_yVWRX5qD7WExRqx4pT-28">
          <mxGeometry relative="1" as="geometry" />
        </mxCell>
        <mxCell id="2_yVWRX5qD7WExRqx4pT-34" value="objetivo" style="ellipse;whiteSpace=wrap;html=1;align=center;fontFamily=Helvetica;fontSize=11;fontColor=default;labelBackgroundColor=default;" vertex="1" parent="1">
          <mxGeometry x="500" y="500" width="80" height="30" as="geometry" />
        </mxCell>
        <mxCell id="2_yVWRX5qD7WExRqx4pT-36" value="data" style="ellipse;whiteSpace=wrap;html=1;align=center;fontFamily=Helvetica;fontSize=11;fontColor=default;labelBackgroundColor=default;" vertex="1" parent="1">
          <mxGeometry x="670" y="510" width="80" height="30" as="geometry" />
        </mxCell>
        <mxCell id="2_yVWRX5qD7WExRqx4pT-37" style="edgeStyle=orthogonalEdgeStyle;shape=connector;rounded=0;orthogonalLoop=1;jettySize=auto;html=1;exitX=0;exitY=0;exitDx=0;exitDy=0;entryX=0.84;entryY=0.95;entryDx=0;entryDy=0;entryPerimeter=0;strokeColor=default;align=center;verticalAlign=middle;fontFamily=Helvetica;fontSize=11;fontColor=default;labelBackgroundColor=default;endArrow=none;endFill=0;" edge="1" parent="1" source="2_yVWRX5qD7WExRqx4pT-36" target="2_yVWRX5qD7WExRqx4pT-28">
          <mxGeometry relative="1" as="geometry" />
        </mxCell>
        <mxCell id="2_yVWRX5qD7WExRqx4pT-40" style="edgeStyle=orthogonalEdgeStyle;shape=connector;rounded=0;orthogonalLoop=1;jettySize=auto;html=1;exitX=0;exitY=0.5;exitDx=0;exitDy=0;entryX=1;entryY=0.75;entryDx=0;entryDy=0;strokeColor=default;align=center;verticalAlign=middle;fontFamily=Helvetica;fontSize=11;fontColor=default;labelBackgroundColor=default;endArrow=none;endFill=0;" edge="1" parent="1" source="2_yVWRX5qD7WExRqx4pT-39" target="2_yVWRX5qD7WExRqx4pT-28">
          <mxGeometry relative="1" as="geometry" />
        </mxCell>
        <mxCell id="2_yVWRX5qD7WExRqx4pT-39" value="tipo" style="ellipse;whiteSpace=wrap;html=1;align=center;fontFamily=Helvetica;fontSize=11;fontColor=default;labelBackgroundColor=default;" vertex="1" parent="1">
          <mxGeometry x="710" y="460" width="80" height="30" as="geometry" />
        </mxCell>
        <mxCell id="2_yVWRX5qD7WExRqx4pT-42" style="edgeStyle=orthogonalEdgeStyle;shape=connector;rounded=0;orthogonalLoop=1;jettySize=auto;html=1;exitX=0;exitY=0.5;exitDx=0;exitDy=0;entryX=1;entryY=0.5;entryDx=0;entryDy=0;strokeColor=default;align=center;verticalAlign=middle;fontFamily=Helvetica;fontSize=11;fontColor=default;labelBackgroundColor=default;endArrow=none;endFill=0;" edge="1" parent="1" source="2_yVWRX5qD7WExRqx4pT-41" target="2_yVWRX5qD7WExRqx4pT-28">
          <mxGeometry relative="1" as="geometry">
            <Array as="points">
              <mxPoint x="690" y="435" />
              <mxPoint x="690" y="450" />
            </Array>
          </mxGeometry>
        </mxCell>
        <mxCell id="2_yVWRX5qD7WExRqx4pT-41" value="status" style="ellipse;whiteSpace=wrap;html=1;align=center;fontFamily=Helvetica;fontSize=11;fontColor=default;labelBackgroundColor=default;" vertex="1" parent="1">
          <mxGeometry x="730" y="420" width="80" height="30" as="geometry" />
        </mxCell>
        <mxCell id="2_yVWRX5qD7WExRqx4pT-43" value="(1, n)" style="text;html=1;align=center;verticalAlign=middle;resizable=0;points=[];autosize=1;strokeColor=none;fillColor=none;fontFamily=Helvetica;fontSize=11;fontColor=default;labelBackgroundColor=default;" vertex="1" parent="1">
          <mxGeometry x="140" y="210" width="50" height="30" as="geometry" />
        </mxCell>
        <mxCell id="2_yVWRX5qD7WExRqx4pT-44" value="(1,1)" style="text;html=1;align=center;verticalAlign=middle;resizable=0;points=[];autosize=1;strokeColor=none;fillColor=none;fontFamily=Helvetica;fontSize=11;fontColor=default;labelBackgroundColor=default;" vertex="1" parent="1">
          <mxGeometry x="140" y="370" width="50" height="30" as="geometry" />
        </mxCell>
        <mxCell id="2_yVWRX5qD7WExRqx4pT-45" value="(0,n)" style="text;html=1;align=center;verticalAlign=middle;resizable=0;points=[];autosize=1;strokeColor=none;fillColor=none;fontFamily=Helvetica;fontSize=11;fontColor=default;labelBackgroundColor=default;" vertex="1" parent="1">
          <mxGeometry x="280" y="410" width="50" height="30" as="geometry" />
        </mxCell>
        <mxCell id="2_yVWRX5qD7WExRqx4pT-46" value="(0,n)" style="text;html=1;align=center;verticalAlign=middle;resizable=0;points=[];autosize=1;strokeColor=none;fillColor=none;fontFamily=Helvetica;fontSize=11;fontColor=default;labelBackgroundColor=default;" vertex="1" parent="1">
          <mxGeometry x="500" y="410" width="50" height="30" as="geometry" />
        </mxCell>
      </root>
    </mxGraphModel>
  </diagram>
</mxfile>
